<?xml version="1.0"?>
<svg xmlns="http://www.w3.org/2000/svg" xmlns:xlink="http://www.w3.org/1999/xlink" version="1.1" id="Capa_1" x="0px" y="0px" width="512px" height="512px" viewBox="0 0 106.048 106.048" style="enable-background:new 0 0 106.048 106.048;" xml:space="preserve"><g><g>
	<path d="M78.423,33.315h-9.906V23.032L78.423,33.315z M63.96,37.87h18.527v44.233H36.925V80.83   l19.703-21.055l4.085,4.086l11.408-11.42L57.845,38.149L46.422,49.583l4.072,4.072L36.925,66.352v-47.02H63.96V37.87L63.96,37.87z    M56.639,34.714c-0.71-0.704-1.839-0.704-2.543,0L42.971,45.818c-0.689,0.709-0.694,1.838,0.01,2.561   c0.694,0.684,1.841,0.684,2.535-0.021l11.123-11.11C57.332,36.55,57.332,35.408,56.639,34.714z M73.021,53.64L61.909,64.752   c-0.704,0.709-0.704,1.849,0,2.543c0.704,0.704,1.844,0.704,2.538,0.01l11.117-11.122c0.709-0.704,0.704-1.844,0-2.543   C74.87,52.943,73.727,52.943,73.021,53.64z M106.048,21.209v63.629c0,11.666-9.543,21.21-21.21,21.21H21.209   C9.543,106.048,0,96.504,0,84.838V21.209C0,9.543,9.543,0,21.209,0h63.628C96.505,0,106.048,9.543,106.048,21.209z M88.562,35.092   L67.533,13.256H30.849v58.771l-13.367,12.5l8.256,8.265l5.116-5.469v0.854h57.713V35.092H88.562z" data-original="#010002" class="active-path" fill="#010002"/>
</g></g> </svg>
